# xmcd
#
# Track frame offsets:
#	150
#	38100
#	54446
#	103951
#	139809
#	166680
#	218111
#	265119
#	323821
#
# Disc length: 4331 seconds
#
# Revision: 1
# Processed by: cddbd v1.5.2PL0 Copyright (c) Steve Scherf et al.
# Submitted via: audiograbber 1.83.01
#
DISCID=7b10e909
DTITLE=Grateful Dead - 77-05-18 Fox Theatre, Atlanta GA
DYEAR=1900
DGENRE=
TTITLE0=Lazy Lightening
TTITLE1=Supplication
TTITLE2=High Time
TTITLE3=The Music Never Stopped
TTITLE4=Jack Straw
TTITLE5=Ship Of Fools
TTITLE6=Estimated Prophet
TTITLE7=Eyes Of The World
TTITLE8=Drums
EXTD=
EXTT0=
EXTT1=
EXTT2=
EXTT3=
EXTT4=
EXTT5=
EXTT6=
EXTT7=
EXTT8=
PLAYORDER=
